<?xml version="1.0" encoding="UTF-8" standalone="no"?>
<!-- Created with Inkscape (http://www.inkscape.org/) -->

<svg
   width="255.78239"
   height="161.3968"
   viewBox="0 0 255.78239 161.39681"
   version="1.1"
   id="svg1"
   inkscape:version="1.3.1 (91b66b0783, 2023-11-16)"
   sodipodi:docname="email.svg"
   xmlns:inkscape="http://www.inkscape.org/namespaces/inkscape"
   xmlns:sodipodi="http://sodipodi.sourceforge.net/DTD/sodipodi-0.dtd"
   xmlns:xlink="http://www.w3.org/1999/xlink"
   xmlns="http://www.w3.org/2000/svg"
   xmlns:svg="http://www.w3.org/2000/svg">
  <sodipodi:namedview
     id="namedview1"
     pagecolor="#ffffff"
     bordercolor="#666666"
     borderopacity="1.0"
     inkscape:showpageshadow="2"
     inkscape:pageopacity="0.0"
     inkscape:pagecheckerboard="0"
     inkscape:deskcolor="#d1d1d1"
     inkscape:document-units="px"
     inkscape:zoom="0.15334607"
     inkscape:cx="-9.7817962"
     inkscape:cy="140.20575"
     inkscape:window-width="1920"
     inkscape:window-height="1057"
     inkscape:window-x="-8"
     inkscape:window-y="-8"
     inkscape:window-maximized="1"
     inkscape:current-layer="layer1" />
  <defs
     id="defs1">
    <inkscape:path-effect
       effect="simplify"
       id="path-effect39"
       is_visible="true"
       lpeversion="1.3"
       threshold="10.8696"
       steps="1"
       smooth_angles="360"
       helper_size="0"
       simplify_individual_paths="false"
       simplify_just_coalesce="false" />
    <inkscape:path-effect
       effect="simplify"
       id="path-effect37"
       is_visible="true"
       lpeversion="1.3"
       threshold="10.8696"
       steps="1"
       smooth_angles="360"
       helper_size="0"
       simplify_individual_paths="false"
       simplify_just_coalesce="false" />
    <inkscape:path-effect
       effect="simplify"
       id="path-effect35"
       is_visible="true"
       lpeversion="1.3"
       threshold="10.8696"
       steps="1"
       smooth_angles="360"
       helper_size="0"
       simplify_individual_paths="false"
       simplify_just_coalesce="false" />
    <inkscape:path-effect
       effect="simplify"
       id="path-effect33"
       is_visible="true"
       lpeversion="1.3"
       threshold="10.8696"
       steps="1"
       smooth_angles="360"
       helper_size="0"
       simplify_individual_paths="false"
       simplify_just_coalesce="false" />
    <inkscape:path-effect
       effect="simplify"
       id="path-effect31"
       is_visible="true"
       lpeversion="1.3"
       threshold="10.8696"
       steps="1"
       smooth_angles="360"
       helper_size="0"
       simplify_individual_paths="false"
       simplify_just_coalesce="false" />
    <inkscape:path-effect
       effect="simplify"
       id="path-effect30"
       is_visible="true"
       lpeversion="1.3"
       threshold="10.8696"
       steps="1"
       smooth_angles="360"
       helper_size="0"
       simplify_individual_paths="false"
       simplify_just_coalesce="false" />
    <inkscape:path-effect
       effect="simplify"
       id="path-effect29"
       is_visible="true"
       lpeversion="1.3"
       threshold="10.8696"
       steps="1"
       smooth_angles="360"
       helper_size="0"
       simplify_individual_paths="false"
       simplify_just_coalesce="false" />
    <inkscape:path-effect
       effect="simplify"
       id="path-effect28"
       is_visible="true"
       lpeversion="1.3"
       threshold="10.8696"
       steps="1"
       smooth_angles="360"
       helper_size="0"
       simplify_individual_paths="false"
       simplify_just_coalesce="false" />
    <inkscape:path-effect
       effect="simplify"
       id="path-effect25"
       is_visible="true"
       lpeversion="1.3"
       threshold="10.8696"
       steps="1"
       smooth_angles="360"
       helper_size="0"
       simplify_individual_paths="false"
       simplify_just_coalesce="false" />
    <rect
       x="887.65271"
       y="-993.7099"
       width="142.94667"
       height="85.306885"
       id="rect6" />
    <rect
       x="1051.5431"
       y="117.38155"
       width="184.22383"
       height="84.168076"
       id="rect47" />
    <inkscape:path-effect
       effect="simplify"
       id="path-effect47"
       is_visible="true"
       lpeversion="1.3"
       threshold="10.8696"
       steps="1"
       smooth_angles="360"
       helper_size="0"
       simplify_individual_paths="false"
       simplify_just_coalesce="false" />
    <inkscape:path-effect
       effect="simplify"
       id="path-effect46"
       is_visible="true"
       lpeversion="1.3"
       threshold="10.8696"
       steps="1"
       smooth_angles="360"
       helper_size="0"
       simplify_individual_paths="false"
       simplify_just_coalesce="false" />
    <inkscape:path-effect
       effect="simplify"
       id="path-effect45"
       is_visible="true"
       lpeversion="1.3"
       threshold="10.8696"
       steps="1"
       smooth_angles="360"
       helper_size="0"
       simplify_individual_paths="false"
       simplify_just_coalesce="false" />
    <inkscape:path-effect
       effect="simplify"
       id="path-effect44"
       is_visible="true"
       lpeversion="1.3"
       threshold="10.8696"
       steps="1"
       smooth_angles="360"
       helper_size="0"
       simplify_individual_paths="false"
       simplify_just_coalesce="false" />
    <inkscape:path-effect
       effect="simplify"
       id="path-effect43"
       is_visible="true"
       lpeversion="1.3"
       threshold="10.8696"
       steps="1"
       smooth_angles="360"
       helper_size="0"
       simplify_individual_paths="false"
       simplify_just_coalesce="false" />
    <inkscape:path-effect
       effect="simplify"
       id="path-effect41"
       is_visible="true"
       lpeversion="1.3"
       threshold="10.8696"
       steps="1"
       smooth_angles="360"
       helper_size="0"
       simplify_individual_paths="false"
       simplify_just_coalesce="false" />
  </defs>
  <g
     inkscape:label="圖層 1"
     inkscape:groupmode="layer"
     id="layer1"
     transform="translate(-225.19422,-385.34759)">
    <g
       id="g27"
       transform="matrix(1.4875992,0,0,1.4875992,420.65648,-100.08477)">
      <path
         id="rect3"
         style="fill:#f51e0b;fill-opacity:1;stroke:#000000;stroke-width:5.24916;stroke-linecap:round;stroke-linejoin:round"
         d="m 443.06826,297.59967 135.65355,-0.1441 c 4.93346,-0.005 13.01113,12.47358 13.01194,17.40704 l 0.0452,276.99002 c 8.1e-4,4.93347 -10.90397,16.08632 -15.83742,16.10178 l -130.093,0.40758 c -4.93344,0.0154 -14.90606,-11.5759 -14.9029,-16.50936 l 0.17909,-279.75937 c 0.003,-4.93346 7.0101,-14.48835 11.94355,-14.49359 z"
         sodipodi:nodetypes="ssssssssss" />
      <rect
         style="fill:#0e1d1a;fill-opacity:1;stroke:#000000;stroke-width:5.064;stroke-linecap:round;stroke-linejoin:round;stroke-dasharray:none;stroke-opacity:1"
         id="rect4"
         width="126.78955"
         height="151.59579"
         x="447.50024"
         y="316.52524"
         ry="11.911777" />
      <g
         id="g14"
         transform="matrix(0.89538219,0,0,0.89538219,54.853471,70.266054)"
         style="fill:#000000;fill-opacity:1;stroke:#e5e5e5;stroke-opacity:1">
        <rect
           style="fill:#000000;fill-opacity:1;stroke:#e5e5e5;stroke-width:3.67659;stroke-linecap:round;stroke-linejoin:round;stroke-dasharray:none;stroke-opacity:1"
           id="rect5"
           width="34.75449"
           height="20.378862"
           x="491.94891"
           y="482.31241"
           ry="9.6312761" />
        <rect
           style="fill:#000000;fill-opacity:1;stroke:#e5e5e5;stroke-width:3.67659;stroke-linecap:round;stroke-linejoin:round;stroke-dasharray:none;stroke-opacity:1"
           id="rect7"
           width="34.75449"
           height="20.378862"
           x="438.51782"
           y="482.31241"
           ry="9.6312761" />
        <rect
           style="fill:#000000;fill-opacity:1;stroke:#e5e5e5;stroke-width:3.67659;stroke-linecap:round;stroke-linejoin:round;stroke-dasharray:none;stroke-opacity:1"
           id="rect8"
           width="34.75449"
           height="20.378862"
           x="545.38"
           y="482.31241"
           ry="9.6312761" />
      </g>
      <g
         id="g15"
         transform="matrix(0.89538219,0,0,0.89538219,54.853471,71.161435)"
         style="fill:#000000;fill-opacity:1;stroke:#e5e5e5;stroke-opacity:1">
        <rect
           style="fill:#000000;fill-opacity:1;stroke:#e5e5e5;stroke-width:3.67659;stroke-linecap:round;stroke-linejoin:round;stroke-dasharray:none;stroke-opacity:1"
           id="rect9"
           width="34.75449"
           height="20.378862"
           x="491.94891"
           y="520.31238"
           ry="9.6312761" />
        <rect
           style="fill:#000000;fill-opacity:1;stroke:#e5e5e5;stroke-width:3.67659;stroke-linecap:round;stroke-linejoin:round;stroke-dasharray:none;stroke-opacity:1"
           id="rect10"
           width="34.75449"
           height="20.378862"
           x="438.51782"
           y="520.31238"
           ry="9.6312761" />
        <rect
           style="fill:#000000;fill-opacity:1;stroke:#e5e5e5;stroke-width:3.67659;stroke-linecap:round;stroke-linejoin:round;stroke-dasharray:none;stroke-opacity:1"
           id="rect11"
           width="34.75449"
           height="20.378862"
           x="545.38"
           y="520.31238"
           ry="9.6312761" />
      </g>
      <g
         id="g16"
         transform="matrix(0.89538219,0,0,0.89538219,54.853471,70.266054)"
         style="fill:#000000;fill-opacity:1;stroke:#e5e5e5;stroke-opacity:1">
        <rect
           style="fill:#000000;fill-opacity:1;stroke:#e5e5e5;stroke-width:3.67659;stroke-linecap:round;stroke-linejoin:round;stroke-dasharray:none;stroke-opacity:1"
           id="rect12"
           width="34.75449"
           height="20.378862"
           x="491.94891"
           y="560.31238"
           ry="9.6312761" />
        <rect
           style="fill:#000000;fill-opacity:1;stroke:#e5e5e5;stroke-width:3.67659;stroke-linecap:round;stroke-linejoin:round;stroke-dasharray:none;stroke-opacity:1"
           id="rect13"
           width="34.75449"
           height="20.378862"
           x="438.51782"
           y="560.31238"
           ry="9.6312761" />
        <rect
           style="fill:#000000;fill-opacity:1;stroke:#e5e5e5;stroke-width:3.67659;stroke-linecap:round;stroke-linejoin:round;stroke-dasharray:none;stroke-opacity:1"
           id="rect14"
           width="34.75449"
           height="20.378862"
           x="545.38"
           y="560.31238"
           ry="9.6312761" />
      </g>
      <path
         style="fill:none;stroke:#000000;stroke-width:1px;stroke-linecap:butt;stroke-linejoin:miter;stroke-opacity:1"
         d="m 431.01439,484.44866 163.38914,8.7e-4"
         id="path26" />
      <path
         style="fill:#000000;fill-opacity:1;stroke:#000000;stroke-width:2.33421;stroke-linecap:round;stroke-linejoin:round;stroke-dasharray:none;stroke-opacity:1"
         d="m 443.18471,604.19313 c -2.76579,-2.03778 -6.80874,-6.6984 -8.20558,-9.45921 l -1.23317,-2.43731 v -53.57783 -53.57784 h 77.66865 77.66864 v 53.32369 53.32368 l -0.99775,2.06108 c -1.26054,2.60392 -6.1901,7.85867 -9.16045,9.76474 l -2.26897,1.45599 -65.80852,0.24462 -65.80853,0.24461 z m 32.16389,-13.63281 c 3.26952,-1.92189 4.9456,-5.08299 4.938,-9.31307 -0.007,-4.01395 -1.00644,-6.36841 -3.67051,-8.64877 -2.78062,-2.3801 -5.07477,-2.77264 -14.98317,-2.5637 -9.09183,0.19172 -10.47899,0.55346 -13.22761,3.44948 -3.46297,3.64867 -3.59981,11.13019 -0.27268,14.90758 2.95906,3.35951 4.44849,3.70082 15.57453,3.56901 9.42491,-0.11166 9.45496,-0.11528 11.64144,-1.40053 z m 45.66317,1.02487 c 2.24996,-0.62478 5.28741,-3.35754 6.36724,-5.72853 1.0511,-2.30791 1.12349,-7.00428 0.1441,-9.34887 -0.91105,-2.18098 -2.70041,-4.06601 -5.04591,-5.31569 -1.64062,-0.87413 -2.75791,-1.00164 -10.14071,-1.15732 -9.86355,-0.208 -12.2078,0.1881 -14.93645,2.52372 -2.80284,2.39912 -3.73168,4.52103 -3.73168,8.52485 0,5.34428 2.20642,8.69982 6.79795,10.33837 2.14193,0.76438 17.9291,0.88999 20.54546,0.16347 z m 47.96705,-0.0692 c 2.49469,-0.74084 5.89381,-4.13996 6.63465,-6.63465 1.6643,-5.60432 -0.44569,-11.16273 -5.19835,-13.6942 -1.6512,-0.8795 -2.74283,-0.99962 -10.4523,-1.15012 -6.96833,-0.13604 -9.10152,-0.0247 -11.19598,0.58414 -9.16407,2.66406 -10.24866,15.84136 -1.66185,20.19066 2.46831,1.25022 2.62231,1.26759 11.23959,1.26759 5.54202,0 9.43078,-0.20603 10.63424,-0.56342 z m -95.55607,-34.99427 c 4.33129,-1.29768 6.88464,-5.14035 6.86818,-10.33628 -0.0122,-3.8467 -0.99125,-6.27918 -3.36694,-8.36505 -2.60015,-2.28297 -4.08305,-2.51779 -14.86545,-2.35394 l -9.7151,0.14763 -1.91974,1.27152 c -1.05586,0.69934 -2.49192,2.13588 -3.19126,3.19233 -1.14199,1.72512 -1.27153,2.32691 -1.27153,5.90718 0,3.62907 0.12459,4.18808 1.38994,6.23659 1.01284,1.6397 2.05885,2.59965 3.85541,3.53818 2.45366,1.28181 2.50851,1.28798 11.46294,1.28798 5.4086,0 9.69794,-0.20987 10.75355,-0.52614 z m 49.34041,-0.76184 c 7.46105,-3.8977 7.33853,-15.76344 -0.20046,-19.413 -1.82204,-0.88204 -2.79517,-0.96327 -11.5389,-0.96327 -10.39038,0 -11.71357,0.24747 -14.30221,2.67486 -3.09818,2.9052 -4.08508,9.19176 -2.08996,13.31312 1.08921,2.25 3.66204,4.58304 5.72038,5.18723 0.76055,0.22324 5.55947,0.4246 10.66426,0.44746 l 9.28143,0.0416 z m 47.19102,0.42194 c 4.20237,-1.92775 5.97693,-4.8823 5.9858,-9.96609 0.006,-3.21689 -0.1586,-3.9683 -1.28663,-5.88732 -0.71119,-1.20989 -2.14731,-2.76557 -3.19139,-3.45707 l -1.89831,-1.25726 -10.2619,-0.13954 c -9.53963,-0.1297 -10.39024,-0.0741 -12.08539,0.79075 -6.64246,3.38874 -7.98353,12.94521 -2.54094,18.10673 2.54613,2.41464 3.73164,2.63908 13.98569,2.64767 8.19966,0.007 9.69314,-0.10394 11.29307,-0.83787 z m -95.41489,-35.0394 c 3.86264,-1.78835 5.76176,-5.09378 5.76176,-10.02838 0,-3.70237 -1.14653,-6.43262 -3.52438,-8.39265 -2.50929,-2.06837 -4.30134,-2.36934 -14.10747,-2.36934 -8.95443,0 -9.00928,0.006 -11.46294,1.28797 -3.33038,1.73981 -5.137,4.6107 -5.38867,8.56313 -0.33002,5.18288 1.55236,8.8593 5.549,10.8376 1.81848,0.90013 2.7111,0.97408 11.64916,0.96506 8.43754,-0.009 9.91638,-0.1193 11.52354,-0.86339 z m 48.02341,-0.0894 c 7.57462,-3.66681 7.6605,-15.51583 0.14094,-19.4441 l -2.52499,-1.31907 -9.9485,0.14633 -9.9485,0.14633 -1.91988,1.27153 c -3.08453,2.04285 -4.42152,4.48558 -4.62138,8.44344 -0.20001,3.96074 0.41843,6.12502 2.39275,8.37364 2.67064,3.04169 3.92106,3.32365 14.79023,3.33505 8.85752,0.009 9.81279,-0.0689 11.63933,-0.95315 z m 48.89923,-0.52447 c 2.55173,-1.69 4.27955,-4.7373 4.57944,-8.07661 0.31857,-3.54745 -0.48114,-6.22729 -2.5397,-8.51054 -2.97598,-3.3008 -4.07508,-3.56769 -14.74013,-3.57924 -10.17993,-0.011 -11.53744,0.24579 -14.08612,2.66475 -5.38286,5.10888 -4.12867,14.57671 2.39415,18.07333 1.54562,0.82855 2.52108,0.89258 12.08765,0.79343 l 10.40635,-0.10785 z"
         id="path27" />
      <text
         xml:space="preserve"
         style="font-style:normal;font-variant:normal;font-weight:normal;font-stretch:normal;font-size:20.2157px;line-height:1.25;font-family:'Arial Rounded MT Bold';-inkscape-font-specification:'Arial Rounded MT Bold, Normal';font-variant-ligatures:normal;font-variant-caps:normal;font-variant-numeric:normal;font-variant-east-asian:normal;fill:#ffffff;fill-opacity:1;stroke-width:0.31587"
         x="477.625"
         y="359.06284"
         id="text27"><tspan
           sodipodi:role="line"
           id="tspan27"
           x="477.625"
           y="359.06284"
           style="stroke-width:0.31587">68xxxx</tspan></text>
    </g>
    <g
       id="g42"
       transform="translate(414.262,-527.72919)">
      <rect
         style="fill:#000000;fill-opacity:1;stroke:#e5e5e5;stroke-width:5.064;stroke-linecap:round;stroke-linejoin:round;stroke-dasharray:none;stroke-opacity:1"
         id="rect27"
         width="42.387783"
         height="234.76311"
         x="588.823"
         y="386.38095"
         ry="14.43648" />
      <rect
         style="fill:#000000;fill-opacity:1;stroke:#e5e5e5;stroke-width:5.064;stroke-linecap:round;stroke-linejoin:round;stroke-dasharray:none;stroke-opacity:1"
         id="rect28"
         width="208.67836"
         height="239.82712"
         x="639.07733"
         y="383.84894"
         ry="21.290707" />
      <rect
         style="fill:#0e4839;fill-opacity:1;stroke:#e5e5e5;stroke-width:5.064;stroke-linecap:round;stroke-linejoin:round;stroke-dasharray:none;stroke-opacity:1"
         id="rect29"
         width="157.93301"
         height="65.132957"
         x="664.45001"
         y="405.2077"
         ry="8.9051723" />
      <g
         id="g41"
         transform="translate(-0.15089798)">
        <g
           id="g38">
          <rect
             style="fill:#000000;fill-opacity:1;stroke:#e5e5e5;stroke-width:3.77339;stroke-linecap:round;stroke-linejoin:round;stroke-dasharray:none;stroke-opacity:1"
             id="rect30"
             width="44.611137"
             height="29.321003"
             x="664.26184"
             y="493.79932"
             ry="11.644917" />
          <rect
             style="fill:#000000;fill-opacity:1;stroke:#e5e5e5;stroke-width:3.77339;stroke-linecap:round;stroke-linejoin:round;stroke-dasharray:none;stroke-opacity:1"
             id="rect31"
             width="44.611137"
             height="29.321003"
             x="721.26184"
             y="493.79932"
             ry="11.644917" />
          <rect
             style="fill:#000000;fill-opacity:1;stroke:#e5e5e5;stroke-width:3.77339;stroke-linecap:round;stroke-linejoin:round;stroke-dasharray:none;stroke-opacity:1"
             id="rect32"
             width="44.611137"
             height="29.321003"
             x="778.26184"
             y="493.79932"
             ry="11.644917" />
        </g>
        <g
           id="g39"
           transform="translate(0,-1)">
          <rect
             style="fill:#000000;fill-opacity:1;stroke:#e5e5e5;stroke-width:3.77339;stroke-linecap:round;stroke-linejoin:round;stroke-dasharray:none;stroke-opacity:1"
             id="rect33"
             width="44.611137"
             height="29.321003"
             x="664.26184"
             y="535.79932"
             ry="11.644917" />
          <rect
             style="fill:#000000;fill-opacity:1;stroke:#e5e5e5;stroke-width:3.77339;stroke-linecap:round;stroke-linejoin:round;stroke-dasharray:none;stroke-opacity:1"
             id="rect34"
             width="44.611137"
             height="29.321003"
             x="721.26184"
             y="535.79932"
             ry="11.644917" />
          <rect
             style="fill:#000000;fill-opacity:1;stroke:#e5e5e5;stroke-width:3.77339;stroke-linecap:round;stroke-linejoin:round;stroke-dasharray:none;stroke-opacity:1"
             id="rect35"
             width="44.611137"
             height="29.321003"
             x="778.26184"
             y="535.79932"
             ry="11.644917" />
        </g>
        <g
           id="g40">
          <rect
             style="fill:#000000;fill-opacity:1;stroke:#e5e5e5;stroke-width:3.77339;stroke-linecap:round;stroke-linejoin:round;stroke-dasharray:none;stroke-opacity:1"
             id="rect36"
             width="44.611137"
             height="29.321003"
             x="664.26184"
             y="575.79932"
             ry="11.644917" />
          <rect
             style="fill:#000000;fill-opacity:1;stroke:#e5e5e5;stroke-width:3.77339;stroke-linecap:round;stroke-linejoin:round;stroke-dasharray:none;stroke-opacity:1"
             id="rect37"
             width="44.611137"
             height="29.321003"
             x="721.26184"
             y="575.79932"
             ry="11.644917" />
          <rect
             style="fill:#000000;fill-opacity:1;stroke:#e5e5e5;stroke-width:3.77339;stroke-linecap:round;stroke-linejoin:round;stroke-dasharray:none;stroke-opacity:1"
             id="rect38"
             width="44.611137"
             height="29.321003"
             x="778.26184"
             y="575.79932"
             ry="11.644917" />
        </g>
      </g>
      <text
         xml:space="preserve"
         style="font-style:normal;font-variant:normal;font-weight:normal;font-stretch:normal;font-size:42.7386px;line-height:1.25;font-family:'Arial Rounded MT Bold';-inkscape-font-specification:'Arial Rounded MT Bold, Normal';font-variant-ligatures:normal;font-variant-caps:normal;font-variant-numeric:normal;font-variant-east-asian:normal;fill:#ffffff;fill-opacity:1;stroke-width:0.66779"
         x="698.88324"
         y="448.83447"
         id="text41"><tspan
           sodipodi:role="line"
           id="tspan41"
           x="698.88324"
           y="448.83447"
           style="stroke-width:0.66779">xxxx</tspan></text>
    </g>
    <g
       id="g43"
       style="fill:#dffbfe;fill-opacity:1"
       transform="matrix(1.2734952,0,0,1.2734952,-2745.9572,-140.943)">
      <path
         id="path3"
         style="fill:#dffbfe;fill-opacity:1;stroke:#000000;stroke-width:1.94279;stroke-linecap:butt;stroke-linejoin:miter;stroke-dasharray:none;stroke-opacity:1"
         d="m 2476.9638,465.80829 56.0819,31.79482 m -143.3437,-31.96383 -55.7712,31.80347 m 0.109,-83.20667 c 0,0 72.4635,75.29168 99.4539,75.29162 27.6084,-6e-5 99.4539,-75.29162 99.4539,-75.29162 m -197.0659,0 h 195.224 c 1.0205,0 1.842,0.82148 1.842,1.84189 v 121.10874 c 0,1.0204 -0.8215,1.84189 -1.842,1.84189 h -195.224 c -1.0205,0 -1.8419,-0.82149 -1.8419,-1.84189 V 416.07797 c 0,-1.02041 0.8214,-1.84189 1.8419,-1.84189 z" />
      <path
         style="fill:#dffbfe;fill-opacity:1;stroke:none;stroke-width:1.65053;stroke-linecap:round;stroke-linejoin:round;stroke-dasharray:none;stroke-opacity:1"
         d="m 2429.6815,487.95691 c -16.0121,-3.66783 -46.7645,-27.09876 -85.0453,-64.79796 l -7.8462,-7.72694 96.5789,-0.014 96.5789,-0.014 -2.0549,2.29516 c -2.2295,2.49012 -19.4265,19.09449 -26.0169,25.12016 -27.9933,25.59496 -49.5276,40.93064 -62.6682,44.62921 -3.0902,0.86977 -7.0307,1.08006 -9.5263,0.50839 z"
         id="path42" />
    </g>
    <g
       id="g51"
       transform="matrix(0.72720751,0,0,0.72720751,-66.473574,1813.3963)">
      <g
         id="g50"
         transform="translate(913.0967,-1063.8514)"
         style="fill:#ffffff;fill-opacity:1">
        <path
           style="fill:#ffffff;fill-opacity:1;stroke:#000000;stroke-width:5;stroke-linecap:butt;stroke-linejoin:miter;stroke-dasharray:none;stroke-opacity:1"
           d="m 1418.9692,247.09614 c -17.0787,25.63657 -21.3311,57.19791 -25.2057,86.98067 -4.5423,34.91537 -11.1297,69.44267 -16.8207,104.23399 -5.9516,36.38505 -30.8629,67.51872 -32.2703,104.89767 -0.6745,17.91197 6.6641,34.963 19.098,48.50027 20.8352,22.68397 52.1905,31.19413 81.6837,33.79568 42.8464,3.77944 85.7138,-0.12771 128.5489,-2.02207 23.6589,-1.0463 51.1506,0.77343 69.5969,-14.75772 15.3361,-12.91247 13.4408,-34.85339 13.4115,-52.7004 -0.075,-45.63951 12.4793,-89.73801 20.3837,-134.38029 8.644,-48.81946 24.1713,-98.43093 16.0721,-148.33768 -3.2085,-19.77029 -13.8751,-39.45838 -33.2115,-48.07401 -43.8008,-19.5161 -92.8958,-21.62718 -140.1444,-22.09532 -22.2337,-0.2203 -45.8621,-0.28728 -65.3809,11.75245 -12.5571,7.74557 -27.2653,14.90595 -34.5452,28.34377 0,0 -0.694,1.87798 -0.694,1.87798 z"
           id="path45"
           inkscape:path-effect="#path-effect46"
           inkscape:original-d="m 1418.9692,247.09614 c -12.1325,17.095 -16.3072,38.73475 -20.5919,58.93169 -2.5635,13.84976 -5.0223,30.07194 -7.0895,45.80139 -4.68,26.60918 -10.8204,52.9446 -13.3726,79.90341 -4.1214,35.41281 -25.964,65.34561 -32.5723,99.98675 -2.0475,20.09663 -0.1638,42.59392 15.7631,57.10645 13.9261,15.68854 32.4617,26.40117 53.0257,30.56438 32.9057,10.10407 67.7232,7.15072 101.611,6.4446 40.8293,-4.43613 84.0196,2.47561 122.657,-14.16333 20.8018,-8.70774 15.9023,-37.22976 18.6118,-55.64725 -0.301,-43.20102 13.9498,-84.42592 19.1794,-126.97155 7.3904,-50.15613 41.4637,-156.14947 -2.9758,-196.30852 -41.7613,-29.17647 -132.3782,-31.33411 -181.7656,-28.85237 -18.9859,1.22964 -36.3351,9.42842 -51.6825,20.2247 -8.2383,6.08563 -18.4977,12.09464 -20.7978,22.97965 z"
           sodipodi:nodetypes="ccccccccccccccc" />
        <path
           style="fill:#ffffff;fill-opacity:1;stroke:#000000;stroke-width:2.9;stroke-linecap:butt;stroke-linejoin:miter;stroke-dasharray:none;stroke-opacity:1"
           d="m 1071.5336,359.55643 c 6.0061,0.9461 12.396,2.14498 18.1554,-0.64768 4.6262,-2.24325 9.7276,-2.31653 14.8257,-3.24404 3.7903,-0.68958 6.3566,2.74371 9.894,3.33702 4.6779,0.78461 9.3673,-0.17481 14.0238,-0.55722 4.0203,-0.33016 7.3242,1.79916 11.5862,1.8532 4.3293,0.0549 8.674,0.17777 12.9442,-0.39459 5.0381,-0.67529 7.4683,6.30902 12.0542,5.98808 4.6704,-0.32685 9.1506,-2.0746 13.7116,-3.00516 4.4089,-0.89955 7.9512,2.18745 12.0878,2.66671 4.1006,0.47508 8.5114,-0.84529 12.2281,1.35391 4.2493,2.51433 8.7979,2.33242 14.1626,1.32181 3.7426,-0.70504 7.7321,-0.65057 11.5459,-0.29518 3.8322,0.35709 7.5545,-0.59439 11.2223,-2.26131 3.6592,-1.66301 7.9197,-1.84133 11.9433,-1.8532"
           id="path46"
           inkscape:path-effect="#path-effect47"
           inkscape:original-d="m 1071.5336,359.55643 c 4.5919,0.59035 6.9904,1.27241 10.9138,1.11192 0.7569,-0.031 1.5281,-0.01 2.2651,-0.18532 2.2333,-0.53204 4.4622,-1.33045 6.5894,-2.22384 0.4164,-0.17488 0.8236,-0.37064 1.2355,-0.55596 0.4118,-0.18532 0.8056,-0.41777 1.2355,-0.55596 0.5358,-0.17223 1.1055,-0.21826 1.6474,-0.37064 3.4078,-0.95843 -0.1692,-0.46358 5.3538,-1.11192 0.3409,-0.04 0.6864,0 1.0296,0 1.0296,0 2.0592,0 3.0888,0 0.3432,0 0.6864,0 1.0296,0 0.4805,0 0.9618,-0.0288 1.4415,0 0.5515,0.0331 1.1274,-0.002 1.6473,0.18532 0.8753,0.31509 1.6733,0.81863 2.471,1.29724 0.4415,0.26485 0.8178,0.62581 1.2355,0.9266 0.8852,0.63727 1.2428,0.87504 2.4711,1.11192 0.4044,0.078 0.8237,0 1.2355,0 1.9219,0 3.8461,0.0934 5.7657,0 0.6293,-0.0306 1.2303,-0.27719 1.8533,-0.37064 1.0255,-0.15382 2.056,-0.27769 3.0888,-0.37064 0.3418,-0.0308 0.6864,0 1.0296,0 0.3432,0 0.6864,0 1.0296,0 0.6177,0 1.237,-0.0427 1.8532,0 0.8667,0.06 1.0439,0.34395 1.8533,0.74128 0.4054,0.199 0.8127,0.39739 1.2355,0.55596 1.3771,0.51637 1.8361,0.46233 3.5006,0.55596 0.3427,0.0193 0.6864,0 1.0296,0 2.2652,0 4.5303,0 6.7954,0 0.8236,0 1.6481,0.0353 2.471,0 3.576,-0.15325 0.4465,-0.53104 5.9716,-0.37064 0.7648,0.0222 1.576,0.0384 2.2652,0.37064 0.6609,0.31866 3.8096,2.5869 4.942,3.52107 0.3562,0.29382 0.6549,0.65682 1.0296,0.9266 0.2834,0.20405 1.998,1.05182 2.2651,1.11192 0.4018,0.0904 0.8237,0 1.2355,0 0.2746,0 0.5556,0.059 0.8237,0 2.8142,-0.67951 5.6285,-1.35901 8.4427,-2.03852 0.3432,-0.12354 0.677,-0.2773 1.0296,-0.37064 2.4988,-0.66142 1.8777,-0.55596 3.9124,-0.55596 1.5788,0 3.1944,-0.112 4.7362,0.37064 0.8027,0.25127 1.4981,0.76677 2.2651,1.11192 0.7557,0.34006 2.3707,1.01214 3.2947,1.11192 1.8747,0.20246 3.0728,0.18532 4.7361,0.18532 0.7551,0 1.5101,0 2.2651,0 0.3432,0 0.6864,0 1.0296,0 0.4119,0 0.8356,-0.0982 1.2355,0 0.1186,0.0291 3.8412,1.24906 4.7362,1.66788 1.2511,0.58549 2.4554,1.2677 3.7065,1.8532 0.4665,0.21828 0.9292,0.50276 1.4415,0.55595 1.2971,0.13471 2.6091,0.0469 3.9124,0 0.4162,-0.015 0.8461,-0.0378 1.2355,-0.18531 0.01,-0.004 2.846,-1.49577 3.7066,-1.66788 0.2692,-0.0539 0.5491,0 0.8237,0 0.4804,0 0.9609,0 1.4414,0 1.3041,0 2.6083,0 3.9124,0 1.0983,0 2.1968,-0.026 3.2948,0 1.5109,0.0358 3.0196,0.13844 4.5302,0.18532 0.4802,0.0149 0.9696,0.091 1.4414,0 1.4614,-0.28183 2.9318,-0.5864 4.3243,-1.11192 0.759,-0.28645 1.357,-0.89099 2.0592,-1.29724 0.2606,-0.15077 0.5491,-0.24709 0.8237,-0.37064 0.5491,-0.24709 1.0706,-0.56826 1.6473,-0.74128 0.263,-0.0789 0.5497,0.0176 0.8237,0 0.6877,-0.0442 1.3765,-0.0908 2.0592,-0.18532 0.2129,-0.0295 0.408,-0.13813 0.6177,-0.18532 0.067,-0.0151 0.1402,0.0197 0.206,0 0.1442,-0.0433 0.2625,-0.16612 0.4118,-0.18532 2.0004,-0.25719 3.3074,-0.18532 5.3539,-0.18532"
           transform="translate(327.82244,96.23926)" />
        <use
           id="use47"
           inkscape:spray-origin="#path46"
           xlink:href="#path46"
           transform="translate(30.755189,-52.06966)"
           style="fill:#ffffff;fill-opacity:1" />
        <use
           id="use48"
           inkscape:spray-origin="#path46"
           xlink:href="#path46"
           transform="translate(59.921879,-118.38283)"
           style="fill:#ffffff;fill-opacity:1" />
        <use
           id="use49"
           inkscape:spray-origin="#path46"
           xlink:href="#path46"
           transform="translate(41.185105,52.069665)"
           style="fill:#ffffff;fill-opacity:1" />
        <use
           id="use50"
           inkscape:spray-origin="#path46"
           xlink:href="#path46"
           transform="translate(9.2434882,107.1274)"
           style="fill:#ffffff;fill-opacity:1" />
        <text
           xml:space="preserve"
           id="text47"
           style="font-style:normal;font-variant:normal;font-weight:normal;font-stretch:normal;font-size:64px;line-height:1.25;font-family:'Arial Rounded MT Bold';-inkscape-font-specification:'Arial Rounded MT Bold, Normal';font-variant-ligatures:normal;font-variant-caps:normal;font-variant-numeric:normal;font-variant-east-asian:normal;white-space:pre;shape-inside:url(#rect47);display:inline;fill:#ff0700;fill-opacity:1"
           transform="translate(438.55053,122.2004)"><tspan
             x="1051.543"
             y="175.05499"
             id="tspan2">fire!</tspan></text>
      </g>
    </g>
    <g
       id="g6"
       transform="matrix(0.55712288,0,0,0.55712288,-1080.3164,211.74436)">
      <path
         id="rect51"
         style="fill:#f5ee22;fill-opacity:1;stroke-width:2.9;stroke-linecap:round;stroke-linejoin:round"
         d="m 522.93648,-1187.6462 c -21.01158,275.6265 -35.78508,540.43994 -61.08113,808.45931 -102.03227,19.30133 -192.60697,19.29457 -300.60783,-2.3056 -19.70058,-268.47656 -24.33893,-534.38536 -44.36827,-804.11511 127.95122,37.1089 285.72203,37.7319 406.05723,-2.0386 z"
         sodipodi:nodetypes="ccccc" />
      <path
         id="path51"
         style="fill:#0058ff;stroke-width:2.11893;stroke-linecap:round;stroke-linejoin:round"
         d="m 548.39386,-1249.7437 c 3e-5,94.3758 -56.67482,105.3612 -228.486,103.5877 -173.11217,-1.7869 -219.26365,-12.9147 -222.145608,-99.5529 -1.749759,-52.6017 95.956268,-101.6368 222.145618,-101.6368 126.18935,0 228.48597,44.9713 228.48599,97.602 z"
         sodipodi:nodetypes="sssss" />
      <rect
         style="fill:#ff0700;fill-opacity:1;stroke:none;stroke-width:2.39721;stroke-linecap:round;stroke-linejoin:round;stroke-dasharray:none;stroke-opacity:1"
         id="rect52"
         width="52.21928"
         height="389.58972"
         x="46.917576"
         y="-1599.9668"
         ry="14.62012"
         transform="matrix(0.99573131,0.09229927,-0.19683718,0.98043619,0,0)" />
      <path
         sodipodi:type="spiral"
         style="fill:none;fill-rule:evenodd;stroke:#0058ff;stroke-width:3;stroke-dasharray:none;stroke-opacity:1"
         id="use2"
         sodipodi:cx="899.18066"
         sodipodi:cy="-989.09875"
         sodipodi:expansion="1"
         sodipodi:revolution="5.0963917"
         sodipodi:radius="29.267242"
         sodipodi:argument="-31.32168"
         sodipodi:t0="0"
         transform="translate(-552.00197,517.36566)" />
      <path
         sodipodi:type="spiral"
         style="fill:none;fill-rule:evenodd;stroke:#0058ff;stroke-width:3;stroke-dasharray:none;stroke-opacity:1"
         id="use3"
         sodipodi:cx="899.18066"
         sodipodi:cy="-989.09875"
         sodipodi:expansion="1"
         sodipodi:revolution="5.0963917"
         sodipodi:radius="29.267242"
         sodipodi:argument="-31.32168"
         sodipodi:t0="0"
         transform="translate(-505.05445,152.17328)" />
      <path
         sodipodi:type="spiral"
         style="fill:none;fill-rule:evenodd;stroke:#0058ff;stroke-width:3;stroke-dasharray:none;stroke-opacity:1"
         id="use4"
         sodipodi:cx="899.18066"
         sodipodi:cy="-989.09875"
         sodipodi:expansion="1"
         sodipodi:revolution="5.0963917"
         sodipodi:radius="29.267242"
         sodipodi:argument="-31.32168"
         sodipodi:t0="0"
         transform="translate(-664.78971,-66.069709)" />
      <text
         xml:space="preserve"
         id="text4"
         style="font-style:normal;font-variant:normal;font-weight:normal;font-stretch:normal;font-size:64px;line-height:1.25;font-family:'Arial Rounded MT Bold';-inkscape-font-specification:'Arial Rounded MT Bold, Normal';font-variant-ligatures:normal;font-variant-caps:normal;font-variant-numeric:normal;font-variant-east-asian:normal;white-space:pre;shape-inside:url(#rect6);display:inline;fill:#0058ff;fill-opacity:1"
         transform="rotate(7.729761,757.32906,-4976.8379)"><tspan
           x="887.65234"
           y="-936.03486"
           id="tspan3">65</tspan></text>
    </g>
    <g
       id="g45"
       transform="matrix(0.60019768,0,0,0.60019768,1249.6298,-1203.0583)">
      <g
         id="g44"
         transform="matrix(1,0,0,0.90820693,0,61.627269)">
        <path
           id="path6"
           style="fill:#fff4da;stroke:none;stroke-width:2.93676;stroke-linecap:round;stroke-linejoin:round"
           d="m 754.92805,488.08804 c -2.30559,80.30876 -39.87658,183.26908 -101.67045,183.28365 -30.07413,0.007 -60.80141,-1.32113 -86.22981,-0.86988 -60.64818,1.07626 -106.10969,-82.92218 -106.10969,-183.51848 0,-54.24206 1.42498,-119.19582 26.51897,-152.44108 21.44485,-28.41077 61.10809,-29.1956 121.6388,-29.70465 56.4495,-0.47472 98.53651,2.91847 120.15218,30.529 26.47636,33.81927 27.28936,97.36058 25.7,152.72144 z"
           sodipodi:nodetypes="ssssssss" />
        <g
           id="g17"
           transform="translate(-584.12332,114.12096)">
          <rect
             style="fill:#dffbfe;fill-opacity:1;stroke:#141821;stroke-width:3;stroke-linecap:round;stroke-linejoin:round;stroke-dasharray:none;stroke-opacity:1"
             id="rect15"
             width="73.391609"
             height="63.189907"
             x="1086.6035"
             y="289.48914"
             ry="12.641426" />
          <rect
             style="fill:#dffbfe;fill-opacity:1;stroke:#141821;stroke-width:3;stroke-linecap:round;stroke-linejoin:round;stroke-dasharray:none;stroke-opacity:1"
             id="rect16"
             width="73.391609"
             height="63.189907"
             x="1224.6035"
             y="289.48914"
             ry="12.641426" />
          <path
             style="fill:none;stroke:#000000;stroke-width:3;stroke-linecap:butt;stroke-linejoin:miter;stroke-dasharray:none;stroke-opacity:1"
             d="m 1159.9951,321.08409 c 17.5801,-9.22237 48.7575,-9.51056 64.6084,0"
             id="path16"
             sodipodi:nodetypes="cc" />
        </g>
        <ellipse
           style="fill:#760402;fill-opacity:1;stroke:none;stroke-width:1.54857;stroke-linecap:round;stroke-linejoin:round;stroke-dasharray:none;stroke-opacity:1"
           id="path17"
           cx="606.64514"
           cy="621.6604"
           rx="25.758968"
           ry="11.306172" />
        <g
           id="g24"
           style="stroke:none;stroke-opacity:1">
          <g
             id="g23"
             style="stroke:none;stroke-opacity:1">
            <path
               id="use23"
               style="fill:#777777;stroke:none;stroke-width:3;stroke-linecap:round;stroke-linejoin:round;stroke-opacity:1"
               d="m 559.0069,311.53562 a 79.791748,54.1814 0 0 1 -79.79175,54.1814 79.791748,54.1814 0 0 1 -79.79175,-54.1814 79.791748,54.1814 0 0 1 79.79175,-54.1814 79.791748,54.1814 0 0 1 79.79175,54.1814 z M 544.94543,203.17283 a 79.791748,54.1814 0 0 1 -79.79174,54.1814 79.791748,54.1814 0 0 1 -79.79175,-54.1814 79.791748,54.1814 0 0 1 79.79175,-54.1814 79.791748,54.1814 0 0 1 79.79174,54.1814 z m 235.9831,39.0778 a 79.791748,54.1814 0 0 1 -79.79175,54.1814 79.791748,54.1814 0 0 1 -79.79175,-54.1814 79.791748,54.1814 0 0 1 79.79175,-54.1814 79.791748,54.1814 0 0 1 79.79175,54.1814 z m -79.79175,54.18141 a 79.791748,54.1814 0 0 1 -79.79175,54.1814 79.791748,54.1814 0 0 1 -79.79175,-54.1814 79.791748,54.1814 0 0 1 79.79175,-54.1814 79.791748,54.1814 0 0 1 79.79175,54.1814 z m 129.85327,15.10358 a 79.791748,54.1814 0 0 1 -79.79175,54.1814 79.791748,54.1814 0 0 1 -79.79174,-54.1814 79.791748,54.1814 0 0 1 79.79174,-54.1814 79.791748,54.1814 0 0 1 79.79175,54.1814 z M 680.80304,198.0904 a 79.791748,54.1814 0 0 1 -79.79175,54.1814 79.791748,54.1814 0 0 1 -79.79175,-54.1814 79.791748,54.1814 0 0 1 79.79175,-54.1814 79.791748,54.1814 0 0 1 79.79175,54.1814 z m -79.79175,59.26382 a 79.791748,54.1814 0 0 1 -79.79175,54.1814 79.791748,54.1814 0 0 1 -79.79174,-54.1814 79.791748,54.1814 0 0 1 79.79174,-54.1814 79.791748,54.1814 0 0 1 79.79175,54.1814 z" />
          </g>
        </g>
        <path
           style="fill:none;stroke:#000000;stroke-width:3;stroke-linecap:round;stroke-linejoin:miter;stroke-dasharray:none;stroke-opacity:1"
           d="m 771.36595,785.90239 c 0.72373,9.96908 -2.17276,20.39433 -9.36182,27.70362 -8.63383,8.7782 -21.61969,12.78142 -28.10903,23.73289 -3.79588,6.40596 -4.96193,14.30098 -3.44719,21.37109 2.07168,9.66961 10.42207,16.45257 18.82911,20.76776 9.21574,4.73029 19.94492,7.14785 30.12867,5.35838 7.36035,-1.29334 14.55738,-6.61528 15.90425,-14.51997 1.15549,-6.78153 -3.28098,-12.89306 -8.46358,-16.72207 -7.70078,-5.6895 -17.25652,-9.11453 -26.93078,-9.07206 -4.9214,0.0216 -10.2858,3.29673 -9.51699,8.86641"
           id="path28"
           inkscape:path-effect="#path-effect29"
           inkscape:original-d="m 771.36595,785.90239 c 2.167,42.70558 -42.89693,31.03005 -41.06109,68.57415 -1.71827,14.97093 21.09927,31.39089 43.42095,30.65373 11.23394,0.83757 21.77068,-6.96256 21.59911,-15.6233 2.91221,-20.19718 -46.18029,-35.49093 -44.92633,-16.11853"
           sodipodi:nodetypes="ccccc"
           transform="translate(-158.05355,-316.10239)" />
        <path
           style="fill:#eef2f2;fill-opacity:1;stroke:#141821;stroke-width:3;stroke-linecap:butt;stroke-linejoin:miter;stroke-dasharray:none;stroke-opacity:1"
           d="m 1378.3519,520.16604 c 5.2972,3.66641 23.6313,-1.34107 20.8124,-0.48137 -16.6958,5.09194 -13.2206,15.60258 3.4638,26.64738 6.3728,4.21873 17.7832,-13.21329 9.8567,0.25182 -11.1587,18.95603 21.6238,27.96282 34.6555,20.73502 18.4702,-10.24408 34.386,-25.53861 46.5225,-42.8003 11.5213,-16.38665 31.0823,-37.89584 21.4903,-55.42017 -6.7316,-12.2984 -20.3803,-24.57572 -36.1261,-20.74091 -32.1036,7.81873 -68.1571,15.8649 -89.8492,42.53954 -6.6925,8.22974 -10.7292,18.62042 -10.8259,29.26899 z"
           id="path30"
           inkscape:path-effect="#path-effect31"
           inkscape:original-d="m 1378.3519,520.16604 c 3.7602,2.87595 9.1333,1.42093 13.6547,1.83457 3.3621,0.17256 7.0698,0.21058 9.06,-2.88289 -9.2603,1.37517 -34.5344,30.37587 13.1128,27.09285 3.2367,-1.19322 6.5904,-5.70299 1.1301,-2.25272 -4.4913,2.93508 -6.0008,8.37716 -5.5065,13.4238 9.5901,15.58924 35.2388,13.69906 43.682,6.55205 33.8718,-24.55032 55.3378,-52.77346 61.6681,-94.83528 -5.0375,-11.29873 -20.9415,-23.17011 -28.9967,-22.31527 -35.976,7.79548 -106.8939,24.73909 -107.8045,73.38289 z"
           sodipodi:nodetypes="cccccccccc"
           transform="matrix(0.41058857,0,0,0.41058857,-48.147004,387.50758)" />
        <path
           style="fill:#eef2f2;fill-opacity:1;stroke:#141821;stroke-width:3;stroke-linecap:butt;stroke-linejoin:miter;stroke-dasharray:none;stroke-opacity:1"
           d="m 1378.3519,520.16604 c 5.2972,3.66641 23.6313,-1.34107 20.8124,-0.48137 -16.6958,5.09194 -13.2206,15.60258 3.4638,26.64738 6.3728,4.21873 17.7832,-13.21329 9.8567,0.25182 -11.1587,18.95603 21.6238,27.96282 34.6555,20.73502 18.4702,-10.24408 34.386,-25.53861 46.5225,-42.8003 11.5213,-16.38665 31.0823,-37.89584 21.4903,-55.42017 -6.7316,-12.2984 -20.3803,-24.57572 -36.1261,-20.74091 -32.1036,7.81873 -68.1571,15.8649 -89.8492,42.53954 -6.6925,8.22974 -10.7292,18.62042 -10.8259,29.26899 z"
           id="path33"
           inkscape:path-effect="#path-effect35"
           inkscape:original-d="m 1378.3519,520.16604 c 3.7602,2.87595 9.1333,1.42093 13.6547,1.83457 3.3621,0.17256 7.0698,0.21058 9.06,-2.88289 -9.2603,1.37517 -34.5344,30.37587 13.1128,27.09285 3.2367,-1.19322 6.5904,-5.70299 1.1301,-2.25272 -4.4913,2.93508 -6.0008,8.37716 -5.5065,13.4238 9.5901,15.58924 35.2388,13.69906 43.682,6.55205 33.8718,-24.55032 55.3378,-52.77346 61.6681,-94.83528 -5.0375,-11.29873 -20.9415,-23.17011 -28.9967,-22.31527 -35.976,7.79548 -106.8939,24.73909 -107.8045,73.38289 z"
           sodipodi:nodetypes="cccccccccc"
           transform="matrix(-0.41058857,0,0,0.41058857,1261.4373,387.50758)" />
        <path
           style="fill:#eef2f2;fill-opacity:1;stroke:#141821;stroke-width:3;stroke-linecap:butt;stroke-linejoin:miter;stroke-dasharray:none;stroke-opacity:1"
           d="m 1378.3519,520.16604 c 5.2972,3.66641 23.6313,-1.34107 20.8124,-0.48137 -16.6958,5.09194 -13.2206,15.60258 3.4638,26.64738 6.3728,4.21873 17.7832,-13.21329 9.8567,0.25182 -11.1587,18.95603 21.6238,27.96282 34.6555,20.73502 18.4702,-10.24408 34.386,-25.53861 46.5225,-42.8003 11.5213,-16.38665 31.0823,-37.89584 21.4903,-55.42017 -6.7316,-12.2984 -20.3803,-24.57572 -36.1261,-20.74091 -32.1036,7.81873 -68.1571,15.8649 -89.8492,42.53954 -6.6925,8.22974 -10.7292,18.62042 -10.8259,29.26899 z"
           id="path35"
           inkscape:path-effect="#path-effect37"
           inkscape:original-d="m 1378.3519,520.16604 c 3.7602,2.87595 9.1333,1.42093 13.6547,1.83457 3.3621,0.17256 7.0698,0.21058 9.06,-2.88289 -9.2603,1.37517 -34.5344,30.37587 13.1128,27.09285 3.2367,-1.19322 6.5904,-5.70299 1.1301,-2.25272 -4.4913,2.93508 -6.0008,8.37716 -5.5065,13.4238 9.5901,15.58924 35.2388,13.69906 43.682,6.55205 33.8718,-24.55032 55.3378,-52.77346 61.6681,-94.83528 -5.0375,-11.29873 -20.9415,-23.17011 -28.9967,-22.31527 -35.976,7.79548 -106.8939,24.73909 -107.8045,73.38289 z"
           sodipodi:nodetypes="cccccccccc"
           transform="matrix(0.37740258,-0.16171044,0.16171044,0.37740258,-39.177989,640.27812)" />
        <path
           style="fill:#eef2f2;fill-opacity:1;stroke:#141821;stroke-width:3;stroke-linecap:butt;stroke-linejoin:miter;stroke-dasharray:none;stroke-opacity:1"
           d="m 1378.3519,520.16604 c 5.2972,3.66641 23.6313,-1.34107 20.8124,-0.48137 -16.6958,5.09194 -13.2206,15.60258 3.4638,26.64738 6.3728,4.21873 17.7832,-13.21329 9.8567,0.25182 -11.1587,18.95603 21.6238,27.96282 34.6555,20.73502 18.4702,-10.24408 34.386,-25.53861 46.5225,-42.8003 11.5213,-16.38665 31.0823,-37.89584 21.4903,-55.42017 -6.7316,-12.2984 -20.3803,-24.57572 -36.1261,-20.74091 -32.1036,7.81873 -68.1571,15.8649 -89.8492,42.53954 -6.6925,8.22974 -10.7292,18.62042 -10.8259,29.26899 z"
           id="path37"
           inkscape:path-effect="#path-effect39"
           inkscape:original-d="m 1378.3519,520.16604 c 3.7602,2.87595 9.1333,1.42093 13.6547,1.83457 3.3621,0.17256 7.0698,0.21058 9.06,-2.88289 -9.2603,1.37517 -34.5344,30.37587 13.1128,27.09285 3.2367,-1.19322 6.5904,-5.70299 1.1301,-2.25272 -4.4913,2.93508 -6.0008,8.37716 -5.5065,13.4238 9.5901,15.58924 35.2388,13.69906 43.682,6.55205 33.8718,-24.55032 55.3378,-52.77346 61.6681,-94.83528 -5.0375,-11.29873 -20.9415,-23.17011 -28.9967,-22.31527 -35.976,7.79548 -106.8939,24.73909 -107.8045,73.38289 z"
           sodipodi:nodetypes="cccccccccc"
           transform="matrix(0.1659391,-0.3755625,0.3755625,0.1659391,197.61189,1059.727)" />
        <path
           style="fill:none;stroke:#000000;stroke-width:3;stroke-linecap:butt;stroke-linejoin:miter;stroke-dasharray:none;stroke-opacity:1"
           d="M 502.4802,435.20505 464.45071,409.81026"
           id="path39" />
        <path
           style="fill:none;stroke:#000000;stroke-width:3;stroke-linecap:butt;stroke-linejoin:miter;stroke-dasharray:none;stroke-opacity:1"
           d="m 713.8718,435.20505 39.46478,-20.38604"
           id="path40" />
      </g>
      <path
         sodipodi:type="star"
         style="fill:#fdf701;fill-opacity:1;stroke:none;stroke-width:3;stroke-linecap:round;stroke-linejoin:round;stroke-dasharray:none;stroke-opacity:1"
         id="path44"
         inkscape:flatsided="false"
         sodipodi:sides="4"
         sodipodi:cx="-591.21021"
         sodipodi:cy="-276.15106"
         sodipodi:r1="80.559196"
         sodipodi:r2="20.139797"
         sodipodi:arg1="0.94955489"
         sodipodi:arg2="1.7349531"
         inkscape:rounded="-1.83881e-16"
         inkscape:randomized="0"
         transform="matrix(0.22965215,0.16456385,-0.16483184,0.23002614,629.49828,617.6973)" />
    </g>
  </g>
</svg>
